<svg xmlns="http://www.w3.org/2000/svg" viewBox="0 0 500 500"><g id="freepik--Line--inject-1--inject-18"><g id="freepik--line--inject-1--inject-18"><g id="freepik--Arrow--inject-1--inject-18"><polygon points="201.24 330.23 212.98 337 209.07 339.26 224.71 339.26 224.71 330.23 220.8 332.49 209.07 325.71 201.24 330.23" style="fill:#407BFF"></polygon></g><g id="freepik--line--inject-1--inject-18"><path d="M231.54,344.17a.94.94,0,0,1-.48-.13l-2.92-1.69a1,1,0,0,1-.35-1.31,1,1,0,0,1,1.32-.36l2.92,1.69a1,1,0,0,1-.49,1.8Z" style="fill:#407BFF"></path><path d="M354.57,415.2a.94.94,0,0,1-.48-.13l-5.63-3.25a1,1,0,0,1,1-1.67l5.62,3.25a1,1,0,0,1-.48,1.8Zm-13.67-7.9a1,1,0,0,1-.48-.12l-5.63-3.25a1,1,0,1,1,1-1.67l5.63,3.25a1,1,0,0,1-.49,1.79Zm-13.67-7.89a.94.94,0,0,1-.48-.13L321.12,396a1,1,0,0,1-.35-1.31,1,1,0,0,1,1.32-.35l5.63,3.25a1,1,0,0,1-.49,1.79Zm-13.67-7.89a.94.94,0,0,1-.48-.13l-5.63-3.25a1,1,0,0,1-.35-1.31,1,1,0,0,1,1.32-.36l5.62,3.25a1,1,0,0,1-.48,1.8Zm-13.67-7.89a.94.94,0,0,1-.48-.13l-5.63-3.25a1,1,0,0,1,1-1.67l5.63,3.25a1,1,0,0,1,.35,1.32A1,1,0,0,1,299.89,383.63Zm-13.67-7.89a1,1,0,0,1-.48-.13l-5.63-3.25a1,1,0,1,1,1-1.67l5.63,3.25a1,1,0,0,1,.35,1.31A1,1,0,0,1,286.22,375.74Zm-13.67-7.9a1,1,0,0,1-.48-.12l-5.63-3.25a1,1,0,0,1,1-1.67l5.63,3.25a1,1,0,0,1-.49,1.79ZM258.88,360a.94.94,0,0,1-.48-.13l-5.63-3.25a1,1,0,0,1-.35-1.31,1,1,0,0,1,1.32-.36l5.63,3.25a1,1,0,0,1-.49,1.8Zm-13.67-7.89a.94.94,0,0,1-.48-.13l-5.63-3.25a1,1,0,0,1,1-1.67l5.63,3.25a1,1,0,0,1,.35,1.32A1,1,0,0,1,245.21,352.06Z" style="fill:#407BFF"></path><path d="M365.53,421.52a1,1,0,0,1-.48-.12l-2.92-1.69a1,1,0,0,1-.35-1.31,1,1,0,0,1,1.32-.36l2.91,1.69a1,1,0,0,1-.48,1.79Z" style="fill:#407BFF"></path></g></g></g><g id="freepik--Pin--inject-1--inject-18"><g id="freepik--pin--inject-1--inject-18"><path d="M429.3,169.32h0l-.9-.52-27.94-16a38.52,38.52,0,0,0-21.82-6.39c-9.77,0-19.63,3.54-31.24,10-40.57,22.48-75.23,87.3-75.23,129.86V298c0,51.58,67.84,114.54,67.84,114.54l28.13,16.25a.12.12,0,0,0,.12.05c-.94-1.11,29.89-46.09,59-133.83C459.4,197.85,429.9,169.88,429.3,169.32ZM381.82,323.54c-23,13.27-42.23,6.32-47.68-15.09C323.61,307,316,298.9,313.65,285.6c-2.95-43,19.87-77.19,52.55-91.07,14-5.09,25.68-1.46,31.94,9.06,19.2-3.3,32.94,9.86,32.94,34.64C431.08,269.63,409,307.85,381.82,323.54Z" style="fill:#455a64"></path><path d="M431.08,238.23c0,31.4-22.05,69.62-49.26,85.31-23,13.27-42.23,6.32-47.68-15.09,6.91,1,15.07-.85,23.84-5.92,24.92-14.37,45.1-49.35,45.1-78.09,0-8.54-1.78-15.57-4.94-20.85C417.34,200.29,431.08,213.45,431.08,238.23Z" style="fill:#263238"></path><polygon points="343.44 305.45 359.07 314.48 359.07 284.2 343.44 275.17 343.44 305.45" style="fill:#407BFF"></polygon><polygon points="343.44 305.45 359.07 314.48 359.07 284.2 343.44 275.17 343.44 305.45" style="opacity:0.2"></polygon><polygon points="418.03 250.16 381.8 233.18 345.57 292 359.07 284.2 359.07 314.48 376.19 304.6 376.19 284.79 387.4 278.32 387.4 298.12 404.54 288.22 404.54 257.94 418.03 250.16" style="fill:#407BFF"></polygon><polygon points="366.16 224.15 381.8 233.18 345.57 292 329.93 282.97 366.16 224.15" style="fill:#407BFF"></polygon><polygon points="366.16 224.15 381.8 233.18 345.57 292 329.93 282.97 366.16 224.15" style="opacity:0.1"></polygon><polygon points="366.16 224.15 381.8 233.18 418.03 250.16 402.39 241.13 366.16 224.15" style="fill:#407BFF"></polygon><polygon points="366.16 224.15 381.8 233.18 418.03 250.16 402.39 241.13 366.16 224.15" style="fill:#fff;opacity:0.4"></polygon><polygon points="376.19 304.6 387.4 298.12 387.4 278.32 376.19 284.79 376.19 304.6" style="fill:#407BFF"></polygon><polygon points="376.19 304.6 387.4 298.12 387.4 278.32 376.19 284.79 376.19 304.6" style="opacity:0.2"></polygon><path d="M429.3,169.32h0l-.9-.52c-13.56-7.62-31.68-6.6-51.59,4.88-30,17.35-56,53.79-68.29,92-4.88,15.15-6.94,23.17-6.94,37.82v11.77c0,39.75,44.32,93.22,65.05,112.31a9.35,9.35,0,0,0,1.51,1.14.12.12,0,0,0,.12.05,10.18,10.18,0,0,0,14.5-4.2C400.62,388,452.7,277.75,452.7,235V223.27C452.7,196.77,443.74,178,429.3,169.32ZM334.14,308.45c-.28-1.09-.54-2.23-.74-3.4a53.85,53.85,0,0,1-.84-9.94c0-31.4,22-69.61,49.26-85.3a58.84,58.84,0,0,1,9-4.24,42.45,42.45,0,0,1,7.33-2c19.2-3.3,32.94,9.86,32.94,34.64,0,31.4-22.05,69.62-49.26,85.31C358.85,336.81,339.59,329.86,334.14,308.45Z" style="fill:#37474f"></path></g></g><g id="freepik--Character--inject-1--inject-18"><g id="freepik--character--inject-1--inject-18"><path d="M180.6,127.58h-21a17.18,17.18,0,0,1-17.18-17.18v-4.85a19.08,19.08,0,0,1,19.08-19.08h0a19.08,19.08,0,0,1,19.08,19.08Z" style="fill:#263238"></path><path d="M145.47,96.05,141,93.68a2.44,2.44,0,0,1,3.35-1.11A2.65,2.65,0,0,1,145.47,96.05Z" style="fill:#263238"></path><path d="M145.84,96.55l-4.7,1.76a2.44,2.44,0,0,1,1.37-3.25A2.66,2.66,0,0,1,145.84,96.55Z" style="fill:#263238"></path><polygon points="187.56 151.93 193.34 162.52 185.31 169.41 177.28 156.96 187.56 151.93" style="fill:#9a4a4d"></polygon><path d="M171.4,129.21c3,.26,6.16,1.55,8.33,6l9,18.48s-1.52,6.08-9.44,6.89l-3.14-4.82Z" style="fill:#407BFF"></path><path d="M171.4,129.21c3,.26,6.16,1.55,8.33,6l9,18.48s-1.52,6.08-9.44,6.89l-3.14-4.82Z" style="opacity:0.1"></path><path d="M118,274.6c-1.51-.78-2.46,1.13-3.83,2.67-1,1.07-2.45,2.78-2.67,4-.33,1.82,1.31,4.67,3.12,6.25s3.91,2.7,4.57,6.15,2,5.5,5.58,7.05c3.92,1.69,9.17,1.15,10.95,0,2.11-1.37.18-2.86-2.77-7.09-3.86-5.52-6.87-9.47-6.87-14.62Z" style="fill:#263238"></path><path d="M121.09,270.07l-3.17,4.65A4.46,4.46,0,0,0,119,280.9l.1.07a4.8,4.8,0,0,0,6.07-.94l4.94-5.4Z" style="fill:#b16668"></path><path d="M178.06,181.92c.2,5.92,1.24,27.5-3.08,38.83a106.26,106.26,0,0,1-9,18.47c-1.29,2.21-38.36,38.3-38.36,38.3s-6.3-.46-7.3-6.56c0,0,15.19-25.83,18.48-31.12s14.94-13.42,14.94-13.42l-1.06-49.65Z" style="fill:#37474f"></path><rect x="169.72" y="293.1" width="8.04" height="11.71" transform="translate(409.44 551.95) rotate(167.19)" style="fill:#b16668"></rect><path d="M165,200a49.94,49.94,0,0,0,7.17-8.25c6-8.28,5.07-15.63,5.07-15.63h-2.46l-32.41.66c-3.22,5.27-3.92,13.26-2.83,21,2.25,16.15,15.63,44.1,15.63,44.1-.19,2.21-1.12,11.49,1,19.72,3.33,13,12.39,35,12.39,35s5.67.81,8.49-2.47c0,0-5-44.61-6.37-56C169.19,225.71,165,200,165,200Z" style="fill:#37474f"></path><path d="M178.08,299.9l-.26-1.12c.83.16,4.35,6,7.84,8.54,3.82,2.78,7.14,4.42,8.85,5.68,2.28,1.67-1,5.11-6.65,5.41-2.79.15-7.87-.7-9.44-2.18s-2.7-4-3.94-5-3.76-2-4.61-3.37c-.46-.75-.54-2.62-.48-4.22s.09-3.08.6-3.06c0,.17.19.86.19.86a9.82,9.82,0,0,0,4.77,1.05C176.27,302.41,178.73,302.1,178.08,299.9Z" style="fill:#263238"></path><path d="M169.66,230.51S165.88,203.66,165,200c0,0,6.66-2.54,8.71-4.86,0,0-1.46,3.25-6.23,6.14Z" style="fill:#263238"></path><path d="M149.64,229.47s3.9,10.23,5.52,12.44c0,0-.41,7.61-.35,9.15l-2.11,1.83s-.1-6.39,1-10.26A52.44,52.44,0,0,1,149.64,229.47Z" style="fill:#263238"></path><path d="M176.24,157.89c.51,4.7,1.82,24,1.82,24-15.51,8.28-34.75,2.79-37.69-.62a32.81,32.81,0,0,1,8.71-14.82l-5-14s-.6-1.44-.59-1.45c.31-.52,7.81-7.28,4.12-18a2.7,2.7,0,0,1,2.35-3.55l4.45-.36,12.08-.36c2.88.17,4.94.44,4.94.44,1.85,1.74,4.77,6.49,6.66,11.33C179.28,143.66,180.6,148.65,176.24,157.89Z" style="fill:#407BFF"></path><polygon points="147.29 157.52 149.06 150.67 151.25 166.49 146.82 168.95 149.08 166.48 146.79 160.09 147.29 157.52" style="opacity:0.1"></polygon><path d="M173.78,94.78c2,1.19,4.51,6.26,4.26,16.88-.21,9-3.13,11.24-4.59,11.88s-4.29.25-7-.21v5.41s4.09,7.57,3.17,10.59c-2,.34-4.51-1-8.06-3.41a41.58,41.58,0,0,1-7.14-6.79l.06-12.43s-1.62,1.57-4.36-.83c-2.26-2-3-5.31-1.26-7.11a3.94,3.94,0,0,1,6.27,1.25s4.39.17,10.22-3A16.41,16.41,0,0,0,173.78,94.78Z" style="fill:#b16668"></path><path d="M168,109.4a1.14,1.14,0,1,1-1.19-1.12A1.16,1.16,0,0,1,168,109.4Z" style="fill:#263238"></path><g style="opacity:0.5;mix-blend-mode:multiply"><path d="M168.29,117l2.63.84a1.36,1.36,0,0,1-1.71.94A1.44,1.44,0,0,1,168.29,117Z" style="fill:#9a4a4d"></path></g><path d="M177.27,105.92,175,104.34a1.33,1.33,0,0,1,1.9-.39A1.44,1.44,0,0,1,177.27,105.92Z" style="fill:#263238"></path><path d="M176.74,108.58a1.14,1.14,0,0,1-1.07,1.23,1.18,1.18,0,1,1,1.07-1.23Z" style="fill:#263238"></path><g style="opacity:0.5;mix-blend-mode:multiply"><polygon points="171.4 107.94 171.58 114.75 175.17 113.64 171.4 107.94" style="fill:#9a4a4d"></polygon></g><g style="opacity:0.5;mix-blend-mode:multiply"><path d="M166.41,123.33c-2.9-.38-8.86-2.09-9.79-4.45a6.12,6.12,0,0,0,2.09,3c1.78,1.52,7.7,3.24,7.7,3.24Z" style="fill:#9a4a4d"></path></g><path d="M130.78,174.92c.07-1,1.9-11.37,3.15-17.18l12.22,3.74-2,8.15L134,179.46A4,4,0,0,1,130.78,174.92Z" style="fill:#b16668"></path><path d="M149.93,129.49c-4.69.41-10.87,1.11-13.81,14.46-2.76,12.51-3.44,16.88-3.44,16.88s3.61,4.57,12.95,4.07l3.43-14.23C155.31,142.44,153.3,136.55,149.93,129.49Z" style="fill:#407BFF"></path><path d="M189.44,165.24c1.68-3.12,2.1-3.26,3.09-4s7.13-1.6,9.67-1.81c3-.25,4.05.3,3.22,2.87-1.78,5.5-7.18,17.18-8.39,18.8-.79,1-.95,2-4.31,2.36-3.14.31-7.08.48-8.24.55s-2.76.36-1.72-3.05a112.32,112.32,0,0,1,4.59-11.33C188.64,166.87,189.44,165.24,189.44,165.24Z" style="fill:#263238"></path><path d="M144.19,169.63s27.16,2.87,30.67,1.78,8.25-4.61,10.79-6.06,4.36-1.58,4.36-1-2.17,3.93-2.66,5.3,2.34,1.37,6.06.52,5.21-3,6.18-1.76-2.06,7.45-8.24,9.76-10.77.78-15.87,1-34.36,2.5-41.45.27a6.25,6.25,0,0,1,2.45-6A21.87,21.87,0,0,1,144.19,169.63Z" style="fill:#b16668"></path></g></g></svg>