<svg xmlns="http://www.w3.org/2000/svg" viewBox="0 0 500 500"><g id="freepik--Screen--inject-8"><g id="freepik--Window--inject-8"><path d="M249.07,80.59l-114.45,66a5.68,5.68,0,0,0-2.58,4.46V393.18a5.69,5.69,0,0,0,2.58,4.45l1.61.92a5.75,5.75,0,0,0,5.16,0l114.46-66.1a5.7,5.7,0,0,0,2.58-4.46V86a5.67,5.67,0,0,0-2.59-4.46l-1.6-.92A5.77,5.77,0,0,0,249.07,80.59Z" style="fill:#e0e0e0"></path><path d="M258.43,328.16c0,2.27-1.59,3.71-3.57,4.84L142.38,398c-2,1.14-3.57.22-3.57-2.05V156.05h0a7.11,7.11,0,0,1,3.55-6.15l112.5-65A2.38,2.38,0,0,1,258.43,87h0Z" style="fill:#fafafa"></path><path d="M138.79,190.08l0,205.82c0,2.27,1.6,3.19,3.57,2.05L254.86,333c2-1.13,3.57-2.57,3.57-4.84l0-207.13Z" style="fill:#f5f5f5"></path><path d="M256.05,85.59h0A1.39,1.39,0,0,1,257.43,87V328.16c0,1.54-.94,2.76-3.06,4l-112.49,65a2.29,2.29,0,0,1-1.09.35c-.86,0-1-1-1-1.55V156.05a6.11,6.11,0,0,1,3.05-5.29l112.5-65a1.31,1.31,0,0,1,.69-.19m0-1a2.37,2.37,0,0,0-1.19.32l-112.5,65a7.11,7.11,0,0,0-3.55,6.15V395.9c0,1.61.81,2.54,2,2.54a3.23,3.23,0,0,0,1.59-.49L254.86,333c2-1.13,3.57-2.57,3.57-4.84V87a2.38,2.38,0,0,0-2.38-2.38Z" style="fill:#e0e0e0"></path><path d="M258.43,86v1a2.38,2.38,0,0,0-3.57-2l-112.5,65a6.78,6.78,0,0,0-2.59,2.59.16.16,0,0,0,0,.07l-7-4a5.26,5.26,0,0,1,1.85-2l114.45-66a5.75,5.75,0,0,1,5.16,0l1.61.93A5.64,5.64,0,0,1,258.43,86Z" style="fill:#f0f0f0"></path><g style="opacity:0.15"><path d="M153.73,245.4l23.53-13.56c1.19-.69,2.15-.2,2.15,1.08a4.59,4.59,0,0,1-2.15,3.57l-23.53,13.57c-1.18.68-2.14.19-2.14-1.09A4.64,4.64,0,0,1,153.73,245.4Z"></path></g><path d="M147.56,242.46a.48.48,0,0,1-.42-.25.49.49,0,0,1,.18-.68l104.75-60.48a.5.5,0,1,1,.5.86L147.81,242.39A.45.45,0,0,1,147.56,242.46Z" style="fill:#e0e0e0"></path><path d="M147.56,261.06a.48.48,0,0,1-.42-.25.49.49,0,0,1,.18-.68l104.75-60.48a.49.49,0,0,1,.68.18.5.5,0,0,1-.18.68L147.81,261A.55.55,0,0,1,147.56,261.06Z" style="fill:#e0e0e0"></path><path d="M236.56,197.72c1-.58,1.82-.11,1.82,1.06a4,4,0,0,1-1.83,3.14c-1,.57-1.83.1-1.82-1.06A4,4,0,0,1,236.56,197.72Z" style="fill:#455a64"></path><path d="M235.38,203.66a1.8,1.8,0,0,1-.95-.25,2.22,2.22,0,0,1-1-2,6.7,6.7,0,0,1,3.13-5.23l6.15-3.56a2.45,2.45,0,0,1,2.51-.23,2.2,2.2,0,0,1,1,2,6.64,6.64,0,0,1-3.14,5.22l-6.13,3.57A3.15,3.15,0,0,1,235.38,203.66Zm-1.25-2.29a1.58,1.58,0,0,0,.64,1.45,1.88,1.88,0,0,0,1.83-.23l6.12-3.57a6,6,0,0,0,2.8-4.63,1.58,1.58,0,0,0-.63-1.44,1.88,1.88,0,0,0-1.83.23l-6.15,3.56a6,6,0,0,0-2.78,4.63Z" style="fill:#455a64"></path><g style="opacity:0.15"><path d="M153.73,264l36-20.8c1.18-.68,2.14-.2,2.14,1.09a4.6,4.6,0,0,1-2.14,3.56l-36,20.8c-1.18.68-2.14.2-2.14-1.09A4.6,4.6,0,0,1,153.73,264Z"></path></g><path d="M147.56,279.65a.48.48,0,0,1-.42-.25.49.49,0,0,1,.18-.68l104.75-60.48a.49.49,0,0,1,.68.18.5.5,0,0,1-.18.68L147.81,279.58A.45.45,0,0,1,147.56,279.65Z" style="fill:#e0e0e0"></path><path d="M235.38,222.25a1.89,1.89,0,0,1-.95-.24,2.25,2.25,0,0,1-1-2,6.7,6.7,0,0,1,3.13-5.23l6.15-3.56a2.47,2.47,0,0,1,2.51-.23,2.2,2.2,0,0,1,1,2,6.64,6.64,0,0,1-3.14,5.22l-6.13,3.57A3.15,3.15,0,0,1,235.38,222.25Z" style="fill:#407BFF"></path><path d="M243.14,212.46c1-.58,1.83-.11,1.83,1.06a4,4,0,0,1-1.83,3.14c-1,.57-1.83.1-1.83-1.06A4.07,4.07,0,0,1,243.14,212.46Z" style="fill:#fafafa"></path><path d="M235.38,259.43a1.89,1.89,0,0,1-.95-.24,2.25,2.25,0,0,1-1-2,6.71,6.71,0,0,1,3.13-5.23l6.15-3.56a2.49,2.49,0,0,1,2.51-.23,2.21,2.21,0,0,1,1,2,6.66,6.66,0,0,1-3.14,5.23L236.94,259A3.15,3.15,0,0,1,235.38,259.43Z" style="fill:#407BFF"></path><path d="M243.14,249.65c1-.58,1.83-.11,1.83,1a4,4,0,0,1-1.83,3.14c-1,.57-1.83.1-1.83-1.05A4.05,4.05,0,0,1,243.14,249.65Z" style="fill:#fafafa"></path><path d="M235.38,278a1.89,1.89,0,0,1-.95-.24,2.24,2.24,0,0,1-1-2,6.71,6.71,0,0,1,3.13-5.23l6.15-3.56a2.49,2.49,0,0,1,2.51-.23,2.21,2.21,0,0,1,1,2,6.66,6.66,0,0,1-3.14,5.23l-6.13,3.57A3.23,3.23,0,0,1,235.38,278Z" style="fill:#407BFF"></path><path d="M243.14,268.24c1-.58,1.83-.11,1.83,1.05a4,4,0,0,1-1.83,3.14c-1,.57-1.83.1-1.83-1.05A4.05,4.05,0,0,1,243.14,268.24Z" style="fill:#fafafa"></path><g style="opacity:0.15"><path d="M153.73,282.59,177.26,269c1.19-.68,2.15-.2,2.15,1.09a4.59,4.59,0,0,1-2.15,3.56l-23.53,13.57c-1.18.68-2.14.2-2.14-1.09A4.6,4.6,0,0,1,153.73,282.59Z"></path></g><path d="M147.56,298.24a.48.48,0,0,1-.42-.25.49.49,0,0,1,.18-.68l104.75-60.48a.5.5,0,0,1,.5.86L147.81,298.17A.45.45,0,0,1,147.56,298.24Z" style="fill:#e0e0e0"></path><path d="M236.56,234.91c1-.59,1.82-.11,1.82,1.05a4,4,0,0,1-1.83,3.14c-1,.57-1.83.1-1.82-1A4,4,0,0,1,236.56,234.91Z" style="fill:#455a64"></path><path d="M235.38,240.84a1.89,1.89,0,0,1-.95-.24,2.25,2.25,0,0,1-1-2,6.71,6.71,0,0,1,3.13-5.23l6.15-3.56a2.49,2.49,0,0,1,2.51-.23,2.2,2.2,0,0,1,1,2,6.67,6.67,0,0,1-3.14,5.23l-6.13,3.56A3.15,3.15,0,0,1,235.38,240.84Zm-1.25-2.28a1.56,1.56,0,0,0,.64,1.44,1.88,1.88,0,0,0,1.83-.23l6.12-3.57a6,6,0,0,0,2.8-4.63,1.59,1.59,0,0,0-.63-1.44,1.88,1.88,0,0,0-1.83.23l-6.15,3.56a6,6,0,0,0-2.78,4.64Z" style="fill:#455a64"></path><g style="opacity:0.15"><path d="M153.73,301.18l32-18.43c1.18-.69,2.15-.2,2.15,1.08a4.63,4.63,0,0,1-2.15,3.57l-32,18.43c-1.18.68-2.14.2-2.14-1.09A4.6,4.6,0,0,1,153.73,301.18Z"></path></g><path d="M147.56,316.83a.48.48,0,0,1-.42-.25.49.49,0,0,1,.18-.68l104.75-60.48a.51.51,0,0,1,.68.18.5.5,0,0,1-.18.68L147.81,316.76A.45.45,0,0,1,147.56,316.83Z" style="fill:#e0e0e0"></path><path d="M147.56,317a.49.49,0,0,1-.24-.92l104.75-60.48a.49.49,0,0,1,.68.18.5.5,0,0,1-.18.68L147.81,317A.54.54,0,0,1,147.56,317Z" style="fill:#e0e0e0"></path><path d="M147.56,335.64a.48.48,0,0,1-.42-.25.49.49,0,0,1,.18-.68l104.75-60.48a.49.49,0,0,1,.68.18.5.5,0,0,1-.18.68L147.81,335.57A.55.55,0,0,1,147.56,335.64Z" style="fill:#e0e0e0"></path><path d="M147.56,335.85a.49.49,0,0,1-.24-.92l104.75-60.48a.49.49,0,1,1,.5.85L147.81,335.78A.45.45,0,0,1,147.56,335.85Z" style="fill:#e0e0e0"></path><g style="opacity:0.15"><path d="M153.73,338.79l32-18.43c1.18-.69,2.15-.2,2.15,1.09a4.61,4.61,0,0,1-2.15,3.56l-32,18.43c-1.18.69-2.14.2-2.14-1.08A4.62,4.62,0,0,1,153.73,338.79Z"></path></g><path d="M147.56,354.44a.49.49,0,0,1-.24-.92L252.07,293a.49.49,0,0,1,.68.18.5.5,0,0,1-.18.68L147.81,354.38A.54.54,0,0,1,147.56,354.44Z" style="fill:#e0e0e0"></path><g style="opacity:0.15"><path d="M153.73,319.77l23.53-13.57c1.19-.68,2.15-.2,2.15,1.09a4.62,4.62,0,0,1-2.15,3.57l-23.53,13.56c-1.18.69-2.14.2-2.14-1.09A4.6,4.6,0,0,1,153.73,319.77Z"></path></g><path d="M222.61,299.23,244,286.89c1.18-.69,2.14-.2,2.14,1.09a4.6,4.6,0,0,1-2.14,3.56l-21.42,12.34c-1.18.69-2.14.2-2.14-1.08A4.62,4.62,0,0,1,222.61,299.23Z" style="fill:#e0e0e0"></path><path d="M248.31,285.54a.38.38,0,0,1-.11-.08.22.22,0,0,1-.06-.17v-.67a.35.35,0,0,1,0-.14.24.24,0,0,1,.08-.09h.06l1.78.83a.35.35,0,0,1,.12.07.34.34,0,0,1,0,.17v.33a.69.69,0,0,1,0,.22l-.12.2-1.78,2.89,0,0h0a.06.06,0,0,1-.08,0,.13.13,0,0,1,0-.1v-.67a.53.53,0,0,1,.06-.24c0-.07.07-.14.11-.2l1.15-1.86Z" style="fill:#407BFF"></path><path d="M152.78,377.64a1.57,1.57,0,0,1-.8-.21,2,2,0,0,1-.88-1.82v-9a5.24,5.24,0,0,1,2.39-4.15l27.94-16.13a2,2,0,0,1,2-.15,2,2,0,0,1,.87,1.82v9a5.24,5.24,0,0,1-2.39,4.15L154,377.28A2.46,2.46,0,0,1,152.78,377.64ZM182.64,347a1.45,1.45,0,0,0-.71.22L154,363.32a4.28,4.28,0,0,0-1.9,3.29v9a.83.83,0,0,0,1.4.81l27.94-16.13a4.26,4.26,0,0,0,1.9-3.29v-9a1.07,1.07,0,0,0-.38-1A.62.62,0,0,0,182.64,347Z" style="fill:#e0e0e0"></path><path d="M160.06,365.38c0,.07,0,.16,0,.27v.7c0,.11,0,.2,0,.26a2,2,0,0,0,0,.29.52.52,0,0,0,.11.21.24.24,0,0,0,.18.09.6.6,0,0,0,.27-.09.92.92,0,0,0,.26-.21,1.18,1.18,0,0,0,.17-.24,1.36,1.36,0,0,0,.11-.25,2.25,2.25,0,0,0,.05-.22,1,1,0,0,1,.05-.19.29.29,0,0,1,.11-.11l.62-.36a.06.06,0,0,1,.08,0,.15.15,0,0,1,0,.1,3.52,3.52,0,0,1-.12.77,4.09,4.09,0,0,1-.31.75,4.3,4.3,0,0,1-.47.65,2.35,2.35,0,0,1-.58.48,1.25,1.25,0,0,1-.61.19.68.68,0,0,1-.46-.16,1.1,1.1,0,0,1-.29-.46,2.5,2.5,0,0,1-.12-.7c0-.19,0-.41,0-.64s0-.44,0-.66a4.06,4.06,0,0,1,.12-.83,3.55,3.55,0,0,1,.29-.79,3,3,0,0,1,.46-.7,2.27,2.27,0,0,1,.61-.51,1.31,1.31,0,0,1,.58-.19.82.82,0,0,1,.47.11,1,1,0,0,1,.31.39,2,2,0,0,1,.12.63.35.35,0,0,1,0,.14.24.24,0,0,1-.08.09l-.62.35s-.09,0-.11,0a.42.42,0,0,1-.05-.14.88.88,0,0,0-.05-.15.28.28,0,0,0-.28-.17.57.57,0,0,0-.26.09.87.87,0,0,0-.27.23,1.08,1.08,0,0,0-.18.29,1.6,1.6,0,0,0-.11.33C160.08,365.15,160.07,365.27,160.06,365.38Z" style="fill:#e0e0e0"></path><path d="M162.64,366a2,2,0,0,1,.24-.94,3.3,3.3,0,0,1,.78-.91l.56-.46a.4.4,0,0,0-.06-.25c0-.06-.12-.05-.22,0a.61.61,0,0,0-.17.14l-.08.13a.48.48,0,0,1-.08.12l-.09.07-.61.35s0,0-.07,0a.13.13,0,0,1,0-.1,1.92,1.92,0,0,1,.09-.41,3,3,0,0,1,.24-.47,3.73,3.73,0,0,1,.35-.46,1.87,1.87,0,0,1,.45-.36,1.25,1.25,0,0,1,.51-.18.46.46,0,0,1,.35.1.71.71,0,0,1,.21.34,2.15,2.15,0,0,1,.06.55v2.21a.32.32,0,0,1,0,.16.2.2,0,0,1-.09.11l-.59.35a.07.07,0,0,1-.09,0s0-.06,0-.12v-.2a2.48,2.48,0,0,1-.28.51,1.4,1.4,0,0,1-.45.38.7.7,0,0,1-.36.12.38.38,0,0,1-.27-.08.72.72,0,0,1-.16-.27A1.4,1.4,0,0,1,162.64,366Zm1.09-.46a.6.6,0,0,0,.19-.17,1.43,1.43,0,0,0,.16-.24,1.83,1.83,0,0,0,.1-.28,1.55,1.55,0,0,0,0-.29l-.44.35a1.11,1.11,0,0,0-.2.24.47.47,0,0,0-.08.27c0,.1,0,.15.06.16S163.65,365.56,163.73,365.52Z" style="fill:#e0e0e0"></path><path d="M168.36,363.56a.32.32,0,0,1,0,.16.2.2,0,0,1-.09.11l-.59.35a.07.07,0,0,1-.09,0s0-.06,0-.12v-1.84a.75.75,0,0,0-.1-.45c-.07-.09-.17-.09-.31,0a.67.67,0,0,0-.31.37,1.4,1.4,0,0,0-.1.56v1.85a.34.34,0,0,1,0,.16.35.35,0,0,1-.09.11l-.6.34a.07.07,0,0,1-.09,0,.21.21,0,0,1,0-.12v-3.4a.45.45,0,0,1,0-.16.26.26,0,0,1,.09-.11l.58-.33a.08.08,0,0,1,.09,0,.21.21,0,0,1,0,.12v.17a2,2,0,0,1,.1-.21,1,1,0,0,1,.14-.22,1.68,1.68,0,0,1,.18-.21,1.64,1.64,0,0,1,.25-.19,1.09,1.09,0,0,1,.42-.14.38.38,0,0,1,.32.12.8.8,0,0,1,.21.39,2.32,2.32,0,0,1,.08.7Z" style="fill:#e0e0e0"></path><path d="M169.88,360.73a2.09,2.09,0,0,0,0,.26,1.85,1.85,0,0,0,0,.25.46.46,0,0,0,.13.35c.07.06.17.06.3,0a.8.8,0,0,0,.24-.2,1.13,1.13,0,0,0,.13-.27l.06-.14a.24.24,0,0,1,.08-.09l.62-.36s.07,0,.09,0,0,.06,0,.12a1.91,1.91,0,0,1-.06.37,3.26,3.26,0,0,1-.2.57,3.77,3.77,0,0,1-.38.61,2.45,2.45,0,0,1-.62.52,1.16,1.16,0,0,1-.5.16.56.56,0,0,1-.4-.1.76.76,0,0,1-.27-.37,1.86,1.86,0,0,1-.12-.63v-.58a3.26,3.26,0,0,1,.12-.77,3.11,3.11,0,0,1,.27-.68,2.75,2.75,0,0,1,.4-.57,2,2,0,0,1,.5-.4,1.11,1.11,0,0,1,.62-.2.67.67,0,0,1,.38.17.79.79,0,0,1,.2.33,1.1,1.1,0,0,1,.06.31.34.34,0,0,1,0,.16.2.2,0,0,1-.09.11l-.62.36a.06.06,0,0,1-.08,0,.22.22,0,0,1-.06-.07.2.2,0,0,0-.13-.11.32.32,0,0,0-.24.07.69.69,0,0,0-.3.33A1.2,1.2,0,0,0,169.88,360.73Z" style="fill:#e0e0e0"></path><path d="M173,359.63a.76.76,0,0,0,0,.25.32.32,0,0,0,.11.12.19.19,0,0,0,.13,0l.15-.06a.88.88,0,0,0,.23-.18.86.86,0,0,0,.13-.2l.08-.13.08-.06.62-.36c.07,0,.1,0,.1.1a1.11,1.11,0,0,1-.07.31,3.27,3.27,0,0,1-.22.49,3.51,3.51,0,0,1-.39.55,1.94,1.94,0,0,1-.56.46,1.14,1.14,0,0,1-.55.18.53.53,0,0,1-.4-.15,1.09,1.09,0,0,1-.25-.48,3.4,3.4,0,0,1-.08-.78,4.58,4.58,0,0,1,.08-.83,3.85,3.85,0,0,1,.25-.77,2.77,2.77,0,0,1,.4-.64,2.05,2.05,0,0,1,.55-.47,1,1,0,0,1,.59-.16.63.63,0,0,1,.4.23,1.2,1.2,0,0,1,.22.51,2.87,2.87,0,0,1,.07.67v.2a.29.29,0,0,1,0,.16.17.17,0,0,1-.09.11Zm.43-1.65a.7.7,0,0,0-.3.35,1.92,1.92,0,0,0-.13.48l.86-.49a.69.69,0,0,0-.13-.34Q173.58,357.86,173.38,358Z" style="fill:#e0e0e0"></path><path d="M176.18,359a.35.35,0,0,1,0,.17.2.2,0,0,1-.09.11l-.59.34s-.07,0-.09,0a.16.16,0,0,1,0-.12v-4.79a.32.32,0,0,1,0-.16.2.2,0,0,1,.09-.11l.59-.35a.07.07,0,0,1,.09,0s0,.06,0,.12Z" style="fill:#e0e0e0"></path><path d="M218,337.28v-9a4.75,4.75,0,0,1,2.15-3.72l27.94-16.13c1.18-.68,2.14-.13,2.14,1.24v9a4.76,4.76,0,0,1-2.14,3.72l-27.94,16.13C219,339.2,218,338.65,218,337.28Z" style="fill:#407BFF"></path><path d="M230.06,323a1.25,1.25,0,0,1,.55-.19.83.83,0,0,1,.43.09.7.7,0,0,1,.29.3,1,1,0,0,1,.11.42.35.35,0,0,1,0,.13.19.19,0,0,1-.07.08l-.61.36-.11,0-.08,0,0-.05a.19.19,0,0,0-.09-.05.3.3,0,0,0-.14,0,1,1,0,0,0-.21.08l-.17.12a.93.93,0,0,0-.14.14.59.59,0,0,0-.1.17.45.45,0,0,0,0,.2.22.22,0,0,0,0,.16.21.21,0,0,0,.15,0,.81.81,0,0,0,.28,0l.43-.11a2,2,0,0,1,.45-.06.54.54,0,0,1,.32.13.76.76,0,0,1,.19.32,2,2,0,0,1,.06.54,2.46,2.46,0,0,1-.11.72,2.87,2.87,0,0,1-.3.67,2.8,2.8,0,0,1-.46.57,2.42,2.42,0,0,1-.57.44,1.42,1.42,0,0,1-.58.21.79.79,0,0,1-.45-.08.69.69,0,0,1-.3-.31,1,1,0,0,1-.11-.47.28.28,0,0,1,0-.13c0-.05,0-.08.07-.09l.61-.35a.19.19,0,0,1,.1,0l.08,0,.05.06.1.07a.41.41,0,0,0,.16,0,.48.48,0,0,0,.24-.09,1.67,1.67,0,0,0,.41-.32.57.57,0,0,0,.17-.39.18.18,0,0,0-.06-.15.36.36,0,0,0-.19,0,1.1,1.1,0,0,0-.31.06l-.44.11a.67.67,0,0,1-.7-.12,1.27,1.27,0,0,1-.23-.86,2.08,2.08,0,0,1,.1-.64,2.76,2.76,0,0,1,.26-.65,2.59,2.59,0,0,1,.42-.58A2,2,0,0,1,230.06,323Z" style="fill:#fafafa"></path><path d="M231.78,326a1.91,1.91,0,0,1,.24-.92,3,3,0,0,1,.76-.89l.55-.46a.4.4,0,0,0-.06-.25c0-.05-.11-.05-.21,0a.61.61,0,0,0-.17.14l-.08.13a.48.48,0,0,1-.08.12l-.09.07-.59.34a.06.06,0,0,1-.08,0,.13.13,0,0,1,0-.1,1.46,1.46,0,0,1,.1-.4,2,2,0,0,1,.23-.46,3,3,0,0,1,.35-.46,1.83,1.83,0,0,1,.44-.35,1.18,1.18,0,0,1,.49-.18.46.46,0,0,1,.35.1.6.6,0,0,1,.2.33,1.73,1.73,0,0,1,.07.54v2.18a.32.32,0,0,1,0,.16.2.2,0,0,1-.09.11l-.58.34a.07.07,0,0,1-.09,0s0-.06,0-.12v-.2a2.09,2.09,0,0,1-.28.51,1.42,1.42,0,0,1-.43.37.76.76,0,0,1-.36.12.38.38,0,0,1-.26-.08.51.51,0,0,1-.16-.27A1.33,1.33,0,0,1,231.78,326Zm1.07-.45a.9.9,0,0,0,.19-.16,1,1,0,0,0,.15-.24,1.33,1.33,0,0,0,.1-.28,1,1,0,0,0,0-.29l-.43.35a.91.91,0,0,0-.2.24.56.56,0,0,0-.08.27q0,.14.06.15S232.77,325.61,232.85,325.57Z" style="fill:#fafafa"></path><path d="M235.41,324.93a.41.41,0,0,1,0-.09l-.94-2.79a.07.07,0,0,1,0-.05.35.35,0,0,1,0-.14s.05-.08.08-.09l.6-.35s.08,0,.1,0l.06.08.51,1.58.51-2.17a1.21,1.21,0,0,1,0-.14.25.25,0,0,1,.11-.12l.59-.34a.06.06,0,0,1,.08,0,.13.13,0,0,1,0,.1v.06l-.94,3.87-.06.16a.21.21,0,0,1-.1.11l-.55.32S235.43,325,235.41,324.93Z" style="fill:#fafafa"></path><path d="M238.13,322a.57.57,0,0,0,0,.25.21.21,0,0,0,.24.13l.14-.06a1.05,1.05,0,0,0,.22-.17.9.9,0,0,0,.14-.2,1.11,1.11,0,0,1,.07-.13l.08-.06.61-.35c.07,0,.1,0,.1.09a1.11,1.11,0,0,1-.07.31,3.06,3.06,0,0,1-.21.48,3.56,3.56,0,0,1-.38.54,2.3,2.3,0,0,1-.56.46,1.32,1.32,0,0,1-.54.18.54.54,0,0,1-.4-.16,1.15,1.15,0,0,1-.24-.47,3.31,3.31,0,0,1-.08-.77,4.36,4.36,0,0,1,.08-.81,4.5,4.5,0,0,1,.24-.76,2.93,2.93,0,0,1,.4-.63,2.13,2.13,0,0,1,.54-.46,1,1,0,0,1,.58-.16.57.57,0,0,1,.39.23,1.15,1.15,0,0,1,.22.5,2.78,2.78,0,0,1,.07.66v.2a.28.28,0,0,1,0,.15.17.17,0,0,1-.09.11Zm.42-1.62a.7.7,0,0,0-.3.35,1.42,1.42,0,0,0-.12.47l.84-.48a.55.55,0,0,0-.12-.33C238.78,320.27,238.68,320.26,238.55,320.34Z" style="fill:#fafafa"></path><ellipse cx="199.22" cy="181.2" rx="19.86" ry="11.24" transform="translate(-45.52 293.56) rotate(-66.95)" style="fill:#407BFF"></ellipse><ellipse cx="198.87" cy="174.06" rx="6.24" ry="3.53" transform="translate(-39.16 288.9) rotate(-66.95)" style="fill:#fafafa"></ellipse><path d="M205.82,182.3c-.53-2.66-2.51-3.61-4.8-2.29l-4.72,2.72c-2.28,1.32-4.27,4.56-4.79,7.83l-.7,4.32c1.78,2.06,4.57,2.45,7.72.63s6.15-5.7,7.92-10Z" style="fill:#fafafa"></path><path d="M204.75,197.06a.6.6,0,0,1-.29-.08l-1.22-.71a.59.59,0,0,1-.24-.76l1.13-2.28s0-.06,0-.08a4.43,4.43,0,0,1-.37-.79l-1.56.71a.49.49,0,0,1-.47,0,.47.47,0,0,1-.22-.41v-2.2a.86.86,0,0,1,.34-.64l1.74-1.23a.45.45,0,0,0,.11-.17,11.67,11.67,0,0,1,.45-1.51l-1-.85a.63.63,0,0,1-.13-.78l1.39-2.42a.65.65,0,0,1,.74-.28l1.22.43a12.16,12.16,0,0,1,1.1-1.15.38.38,0,0,0,.09-.18l.19-2.12a.85.85,0,0,1,.39-.61l1.9-1.1a.47.47,0,0,1,.47,0,.48.48,0,0,1,.26.39l.17,1.71a3.65,3.65,0,0,1,.86-.07.12.12,0,0,0,.08,0l1.41-2.11a.58.58,0,0,1,.78-.18l1.22.7a.58.58,0,0,1,.23.77l-1.12,2.27a.14.14,0,0,0,0,.09,4.64,4.64,0,0,1,.36.78l1.57-.7a.49.49,0,0,1,.47,0,.5.5,0,0,1,.21.42v2.2a.86.86,0,0,1-.33.64L215,185.91a.5.5,0,0,0-.11.17,11.35,11.35,0,0,1-.45,1.52l1,.85a.63.63,0,0,1,.13.78l-1.4,2.42a.62.62,0,0,1-.74.27l-1.22-.42a12,12,0,0,1-1.09,1.15.38.38,0,0,0-.09.18l-.19,2.12a.88.88,0,0,1-.4.61l-1.9,1.1a.52.52,0,0,1-.47,0,.51.51,0,0,1-.25-.4l-.17-1.7a4.27,4.27,0,0,1-.86.07h0a.15.15,0,0,0-.09,0l-1.4,2.11A.58.58,0,0,1,204.75,197.06Zm-1.12-1.32,1.1.63,1.36-2.05a.88.88,0,0,1,.65-.33,3.09,3.09,0,0,0,.84-.09.56.56,0,0,1,.44.09.57.57,0,0,1,.22.38l.15,1.57,1.66-1a.17.17,0,0,0,.06-.1l.19-2.11a1.06,1.06,0,0,1,.31-.61,11.76,11.76,0,0,0,1-1.08.7.7,0,0,1,.74-.21l1.22.42,1.34-2.39-1-.79a.71.71,0,0,1-.19-.74,10.5,10.5,0,0,0,.43-1.43,1,1,0,0,1,.38-.57l1.73-1.22a.39.39,0,0,0,.06-.11v-1.91l-1.44.65a.56.56,0,0,1-.44,0,.54.54,0,0,1-.3-.34,3.3,3.3,0,0,0-.34-.76.79.79,0,0,1,0-.73l1.09-2.21-1.09-.63-1.36,2a.9.9,0,0,1-.66.33,3,3,0,0,0-.83.09.56.56,0,0,1-.44-.09.57.57,0,0,1-.22-.39l-.16-1.56-1.66,1a.53.53,0,0,0-.06.1l-.19,2.12a1,1,0,0,1-.3.6,12,12,0,0,0-1,1.09.71.71,0,0,1-.74.21l-1.21-.43-1.35,2.4,1,.79a.67.67,0,0,1,.19.74,11.59,11.59,0,0,0-.43,1.43,1,1,0,0,1-.37.57l-1.74,1.22a.24.24,0,0,0-.05.1v1.92l1.44-.65a.52.52,0,0,1,.44,0,.53.53,0,0,1,.29.33,3.4,3.4,0,0,0,.35.77.82.82,0,0,1,0,.73Zm3.94-1.3ZM211,180Zm-3.13,11.68a2,2,0,0,1-1-.26,2.58,2.58,0,0,1-1.11-2.37,7.49,7.49,0,0,1,3.38-5.85,2.58,2.58,0,0,1,2.6-.22,2.55,2.55,0,0,1,1.11,2.37,7.46,7.46,0,0,1-3.37,5.84h0A3.21,3.21,0,0,1,207.83,191.72Zm2.87-8.3a2.6,2.6,0,0,0-1.26.4,6.73,6.73,0,0,0-3.05,5.27,1.64,1.64,0,0,0,2.71,1.57h0a6.75,6.75,0,0,0,3.05-5.27,2,2,0,0,0-.78-1.8A1.36,1.36,0,0,0,210.7,183.42Z" style="fill:#455a64"></path><path d="M147.38,175.79l1.16.53a.35.35,0,0,1,.1.08.22.22,0,0,1,.06.17v.67a.32.32,0,0,1,0,.14.24.24,0,0,1-.08.09h-.05l-1.8-.83a.3.3,0,0,1-.11-.07.25.25,0,0,1,0-.17v-.33a.48.48,0,0,1,0-.22,1.36,1.36,0,0,1,.11-.2l1.8-2.9,0,0,0,0a.08.08,0,0,1,.08,0,.13.13,0,0,1,0,.1v.67a.53.53,0,0,1-.06.24,1.86,1.86,0,0,1-.1.2Z" style="fill:#455a64"></path><path d="M149.54,177.3a.09.09,0,0,1-.1,0,.17.17,0,0,1,0-.13v-5.1a.33.33,0,0,1,0-.17.25.25,0,0,1,.1-.12l1.51-.88a1,1,0,0,1,.55-.16.52.52,0,0,1,.35.18,1,1,0,0,1,.2.4,1.89,1.89,0,0,1,.06.47,2.14,2.14,0,0,1-.05.45,2.26,2.26,0,0,1-.21.66.75.75,0,0,1-.1.17.72.72,0,0,1,.3.3,1.5,1.5,0,0,1,.13.69,3.68,3.68,0,0,1-.07.64,3.89,3.89,0,0,1-.21.66,3.08,3.08,0,0,1-.35.58,1.58,1.58,0,0,1-.48.42Zm2-5.07c0-.2,0-.33-.12-.38s-.21,0-.39.07l-.91.52v1.22l.91-.52a1,1,0,0,0,.39-.38A1.12,1.12,0,0,0,151.51,172.23ZM150.09,176l.95-.55a1,1,0,0,0,.42-.43,1.32,1.32,0,0,0,.13-.56.52.52,0,0,0-.14-.41c-.09-.07-.23-.06-.41,0l-.95.55Z" style="fill:#455a64"></path><path d="M152.87,172.28a3.4,3.4,0,0,1,.1-.41,2.73,2.73,0,0,1,.21-.47,2.49,2.49,0,0,1,.33-.47,2.08,2.08,0,0,1,.46-.37,1.09,1.09,0,0,1,.47-.16.5.5,0,0,1,.36.1.78.78,0,0,1,.24.38,2.51,2.51,0,0,1,.08.67v2.32a.53.53,0,0,1,0,.17.25.25,0,0,1-.1.12l-.39.23a.08.08,0,0,1-.1,0,.22.22,0,0,1,0-.13V174a2,2,0,0,1-.31.57,1.51,1.51,0,0,1-.51.46.92.92,0,0,1-.4.14.38.38,0,0,1-.29-.09.57.57,0,0,1-.18-.28,1.53,1.53,0,0,1-.07-.46,2.12,2.12,0,0,1,.25-1,2.87,2.87,0,0,1,.68-.8l.83-.71c0-.21,0-.34-.14-.38a.42.42,0,0,0-.34.07.85.85,0,0,0-.2.17,1.54,1.54,0,0,0-.14.23,1.05,1.05,0,0,1-.08.13.32.32,0,0,1-.09.08l-.47.27a.1.1,0,0,1-.09,0S152.87,172.34,152.87,172.28Zm.86,1.74a1.3,1.3,0,0,0,.31-.26,1.5,1.5,0,0,0,.23-.33,1.66,1.66,0,0,0,.14-.37,1.45,1.45,0,0,0,0-.35v-.07l-.7.59a1.44,1.44,0,0,0-.3.33.69.69,0,0,0-.09.34c0,.12,0,.18.11.19A.48.48,0,0,0,153.73,174Z" style="fill:#455a64"></path><path d="M156.34,171.05a2.44,2.44,0,0,0,0,.28,2.1,2.1,0,0,0,0,.27,1.23,1.23,0,0,0,.07.38.54.54,0,0,0,.14.2.32.32,0,0,0,.19,0,.58.58,0,0,0,.21-.07.72.72,0,0,0,.21-.16.65.65,0,0,0,.15-.18,1.18,1.18,0,0,0,.11-.19c0-.07.05-.14.08-.22l.07-.18a.24.24,0,0,1,.1-.13l.39-.23a.08.08,0,0,1,.1,0,.17.17,0,0,1,0,.13,1.94,1.94,0,0,1-.08.45,3.55,3.55,0,0,1-.22.58,3,3,0,0,1-.39.59,1.82,1.82,0,0,1-.56.47.92.92,0,0,1-.51.15.63.63,0,0,1-.39-.17,1,1,0,0,1-.26-.42,2.28,2.28,0,0,1-.12-.63c0-.09,0-.19,0-.31s0-.22,0-.33a4.22,4.22,0,0,1,.11-.76,4.55,4.55,0,0,1,.27-.73,3.25,3.25,0,0,1,.39-.62,1.93,1.93,0,0,1,.51-.44,1.1,1.1,0,0,1,.56-.17.62.62,0,0,1,.39.14.8.8,0,0,1,.22.32,1,1,0,0,1,.08.36.39.39,0,0,1,0,.18.4.4,0,0,1-.1.12l-.39.22a.08.08,0,0,1-.1,0,.86.86,0,0,0-.07-.1l-.08-.13a.41.41,0,0,0-.11-.07.19.19,0,0,0-.15,0,.81.81,0,0,0-.21.09,1,1,0,0,0-.21.17,1.17,1.17,0,0,0-.19.27,2.08,2.08,0,0,0-.14.36A2.11,2.11,0,0,0,156.34,171.05Z" style="fill:#455a64"></path><path d="M159.42,170v1.36a.39.39,0,0,1,0,.18.38.38,0,0,1-.09.12l-.39.22a.08.08,0,0,1-.1,0s0-.06,0-.12v-5.18a.39.39,0,0,1,0-.18.27.27,0,0,1,.1-.11l.39-.23a.06.06,0,0,1,.09,0,.15.15,0,0,1,0,.12v2.49l.86-1.56.08-.13a.34.34,0,0,1,.12-.12l.52-.3s.07,0,.09,0a.21.21,0,0,1,0,.12s0,.05,0,.08a.8.8,0,0,1-.05.11l-1.19,2.17,1.3,1.18s0,0,0,.06a.08.08,0,0,1,0,.06.47.47,0,0,1,0,.16.22.22,0,0,1-.09.1l-.5.29a.17.17,0,0,1-.13,0l-.08,0Z" style="fill:#455a64"></path><path d="M242.38,118.34a.26.26,0,0,1-.23-.13.26.26,0,0,1,.1-.35l6.53-3.78a.26.26,0,0,1,.36.1.27.27,0,0,1-.09.36l-6.54,3.77A.28.28,0,0,1,242.38,118.34Z" style="fill:#455a64"></path><path d="M242.38,121.23a.26.26,0,0,1-.23-.13.28.28,0,0,1,.1-.36l6.53-3.77a.26.26,0,0,1,.36.1.26.26,0,0,1-.09.35l-6.54,3.78A.28.28,0,0,1,242.38,121.23Z" style="fill:#455a64"></path><path d="M242.38,124.12a.28.28,0,0,1-.23-.13.27.27,0,0,1,.1-.36l6.53-3.77a.26.26,0,0,1,.27.45l-6.54,3.77A.2.2,0,0,1,242.38,124.12Z" style="fill:#455a64"></path><path d="M242.36,117.11c.45-.26.82,0,.82.48a1.81,1.81,0,0,1-.83,1.42c-.46.26-.83,0-.83-.48A1.84,1.84,0,0,1,242.36,117.11Z" style="fill:#455a64"></path><path d="M247.4,117.11c.45-.26.83,0,.83.48a1.82,1.82,0,0,1-.84,1.42c-.46.26-.83,0-.82-.48A1.81,1.81,0,0,1,247.4,117.11Z" style="fill:#455a64"></path><path d="M245.2,121.28c.45-.26.82,0,.82.48a1.79,1.79,0,0,1-.83,1.42c-.46.26-.83,0-.82-.47A1.82,1.82,0,0,1,245.2,121.28Z" style="fill:#455a64"></path><path d="M190.6,147.48a1.33,1.33,0,0,1,.6-.2.82.82,0,0,1,.47.1.87.87,0,0,1,.31.32,1,1,0,0,1,.11.46.39.39,0,0,1,0,.14.23.23,0,0,1-.07.09l-.67.38a.21.21,0,0,1-.11,0,.18.18,0,0,1-.09,0l-.05-.05a.15.15,0,0,0-.09-.06.41.41,0,0,0-.16,0,.73.73,0,0,0-.22.09l-.19.13a.71.71,0,0,0-.15.15.58.58,0,0,0-.11.18.59.59,0,0,0-.05.23.23.23,0,0,0,.05.16.19.19,0,0,0,.16,0,1.24,1.24,0,0,0,.3,0l.47-.12a1.52,1.52,0,0,1,.49-.06.54.54,0,0,1,.35.13.66.66,0,0,1,.2.35,1.94,1.94,0,0,1,.07.59,2.88,2.88,0,0,1-.11.78,3.41,3.41,0,0,1-.33.73,3.31,3.31,0,0,1-.5.62,2.92,2.92,0,0,1-.63.48,1.57,1.57,0,0,1-.63.23.92.92,0,0,1-.48-.09.83.83,0,0,1-.33-.34,1.37,1.37,0,0,1-.12-.51.32.32,0,0,1,0-.14.29.29,0,0,1,.08-.1l.66-.38a.24.24,0,0,1,.11,0l.09,0,.06.06a.24.24,0,0,0,.11.08.29.29,0,0,0,.17,0,.68.68,0,0,0,.25-.1,1.8,1.8,0,0,0,.45-.35.61.61,0,0,0,.18-.43.16.16,0,0,0-.06-.15.3.3,0,0,0-.2,0,1.28,1.28,0,0,0-.34.06l-.48.13a.75.75,0,0,1-.77-.14,1.39,1.39,0,0,1-.24-.93,2.88,2.88,0,0,1,.1-.7,3.32,3.32,0,0,1,.29-.71A3,3,0,0,1,190,148,2.75,2.75,0,0,1,190.6,147.48Z" style="fill:#455a64"></path><path d="M193.43,149.81a.62.62,0,0,0,0,.27.19.19,0,0,0,.11.12.22.22,0,0,0,.14,0l.16-.07a1.25,1.25,0,0,0,.24-.18,1.07,1.07,0,0,0,.15-.22,1.09,1.09,0,0,1,.08-.14.35.35,0,0,1,.09-.07l.66-.38c.07,0,.11,0,.11.11a1.45,1.45,0,0,1-.08.33,3.63,3.63,0,0,1-.23.52,3.58,3.58,0,0,1-.42.59,2.42,2.42,0,0,1-.6.5,1.3,1.3,0,0,1-.59.19.57.57,0,0,1-.43-.17,1,1,0,0,1-.26-.51,3.29,3.29,0,0,1-.09-.83,4.41,4.41,0,0,1,.09-.89,3.57,3.57,0,0,1,.26-.82,3,3,0,0,1,.43-.69,2,2,0,0,1,.59-.5,1,1,0,0,1,.63-.18.66.66,0,0,1,.43.25,1.39,1.39,0,0,1,.24.55,3.23,3.23,0,0,1,.07.71v.22a.33.33,0,0,1,0,.17.25.25,0,0,1-.1.12Zm.46-1.77a.76.76,0,0,0-.32.38,1.76,1.76,0,0,0-.14.52l.92-.53a.65.65,0,0,0-.14-.36C194.14,148,194,148,193.89,148Z" style="fill:#455a64"></path><path d="M196.91,147.8a.35.35,0,0,0,.06.24c0,.05.09.05.16,0l.41-.24a.08.08,0,0,1,.1,0,.19.19,0,0,1,0,.12v.79a.47.47,0,0,1,0,.17.25.25,0,0,1-.1.12l-.48.28a1.09,1.09,0,0,1-.44.15.48.48,0,0,1-.33-.12.78.78,0,0,1-.21-.36,2,2,0,0,1-.08-.6v-1.31l-.38.21s-.06,0-.09,0a.17.17,0,0,1,0-.13v-.79a.38.38,0,0,1,0-.17.31.31,0,0,1,.09-.12l.38-.21v-1.28a.35.35,0,0,1,0-.17.25.25,0,0,1,.1-.12l.64-.37s.07,0,.09,0a.16.16,0,0,1,0,.12v1.28l.58-.33s.07,0,.09,0a.17.17,0,0,1,0,.13v.79a.37.37,0,0,1,0,.17.19.19,0,0,1-.09.12l-.58.33Z" style="fill:#455a64"></path><path d="M199.32,146.41a.43.43,0,0,0,.05.24s.09,0,.17,0l.41-.24a.06.06,0,0,1,.09,0,.15.15,0,0,1,0,.12v.79a.33.33,0,0,1,0,.17.31.31,0,0,1-.09.12l-.49.28a1.06,1.06,0,0,1-.43.15.48.48,0,0,1-.33-.12.72.72,0,0,1-.22-.36,2.06,2.06,0,0,1-.07-.6v-1.31l-.38.22a.07.07,0,0,1-.09,0,.17.17,0,0,1-.05-.13V145a.41.41,0,0,1,.05-.17.19.19,0,0,1,.09-.12l.38-.21v-1.28a.38.38,0,0,1,0-.17.24.24,0,0,1,.09-.12l.64-.37a.08.08,0,0,1,.1,0,.17.17,0,0,1,0,.13v1.27l.57-.33a.09.09,0,0,1,.1,0,.17.17,0,0,1,0,.13v.79a.35.35,0,0,1,0,.17.25.25,0,0,1-.1.12l-.57.33Z" style="fill:#455a64"></path><path d="M201.43,142.07a.47.47,0,0,1,0,.17.25.25,0,0,1-.1.12l-.64.37a.08.08,0,0,1-.1,0,.17.17,0,0,1,0-.12v-.79a.53.53,0,0,1,0-.17.25.25,0,0,1,.1-.12l.64-.37a.08.08,0,0,1,.1,0,.19.19,0,0,1,0,.12Zm0,4.5a.59.59,0,0,1,0,.17.25.25,0,0,1-.1.12l-.64.37a.08.08,0,0,1-.1,0,.22.22,0,0,1,0-.13v-3.64a.53.53,0,0,1,0-.17.25.25,0,0,1,.1-.12l.64-.37a.08.08,0,0,1,.1,0,.19.19,0,0,1,0,.12Z" style="fill:#455a64"></path><path d="M204.72,144.66a.39.39,0,0,1,0,.18.27.27,0,0,1-.1.11l-.63.37a.09.09,0,0,1-.1,0,.17.17,0,0,1,0-.13v-2a.79.79,0,0,0-.11-.47c-.07-.1-.18-.1-.33,0a.73.73,0,0,0-.34.39,1.89,1.89,0,0,0-.1.6v2a.35.35,0,0,1,0,.17.25.25,0,0,1-.1.12l-.64.37a.06.06,0,0,1-.09,0,.16.16,0,0,1,0-.12v-3.65a.38.38,0,0,1,0-.17.29.29,0,0,1,.09-.12l.62-.35a.06.06,0,0,1,.09,0s0,.06,0,.12v.18L203,142c0-.08.09-.16.14-.24a2.09,2.09,0,0,1,.2-.22,1.35,1.35,0,0,1,.27-.2.86.86,0,0,1,.45-.15.42.42,0,0,1,.34.12.84.84,0,0,1,.23.42,2.69,2.69,0,0,1,.08.75Z" style="fill:#455a64"></path><path d="M206.54,144.37a1,1,0,0,0,.34-.33.87.87,0,0,0,.15-.5V143l-.1.22-.13.23a2,2,0,0,1-.2.22,1.26,1.26,0,0,1-.28.2,1,1,0,0,1-.43.15.48.48,0,0,1-.36-.12.89.89,0,0,1-.24-.41,2.58,2.58,0,0,1-.11-.71v-.56a4.27,4.27,0,0,1,.11-.83,3.1,3.1,0,0,1,.24-.69,2.59,2.59,0,0,1,.36-.53,1.79,1.79,0,0,1,.43-.36.74.74,0,0,1,.29-.12.37.37,0,0,1,.21,0,.23.23,0,0,1,.14.07.28.28,0,0,1,.09.1v-.18a.58.58,0,0,1,0-.18.27.27,0,0,1,.1-.11l.59-.34a.06.06,0,0,1,.09,0,.17.17,0,0,1,0,.13V143a3.15,3.15,0,0,1-.1.83,2.78,2.78,0,0,1-.29.73,2.73,2.73,0,0,1-.43.58,2.88,2.88,0,0,1-.56.43,1.27,1.27,0,0,1-.65.22.53.53,0,0,1-.39-.14.7.7,0,0,1-.2-.33,1.35,1.35,0,0,1-.06-.37.33.33,0,0,1,0-.17.25.25,0,0,1,.1-.12l.66-.39c.07,0,.12,0,.15.07a.32.32,0,0,0,.11.12C206.34,144.46,206.42,144.44,206.54,144.37Zm-.45-2.59a1.56,1.56,0,0,0,0,.2,1.21,1.21,0,0,0,0,.18.54.54,0,0,0,.13.38c.07.08.18.08.33,0a.81.81,0,0,0,.32-.36,1.72,1.72,0,0,0,.13-.48,2,2,0,0,0,0-.49.5.5,0,0,0-.13-.32c-.08-.07-.18-.07-.32,0a.75.75,0,0,0-.33.37A1.29,1.29,0,0,0,206.09,141.78Z" style="fill:#455a64"></path><path d="M210,140.61a.14.14,0,0,0,0-.11.14.14,0,0,0-.13,0l-.24.07-.38.12a.55.55,0,0,1-.59-.09,1,1,0,0,1-.21-.74,1.7,1.7,0,0,1,.09-.54,2.61,2.61,0,0,1,.24-.54,2.87,2.87,0,0,1,.37-.49,2.52,2.52,0,0,1,.49-.37,1.26,1.26,0,0,1,.49-.19.78.78,0,0,1,.38,0,.52.52,0,0,1,.26.2.65.65,0,0,1,.1.34.36.36,0,0,1,0,.17.32.32,0,0,1-.1.12l-.61.35a.1.1,0,0,1-.09,0l-.07,0-.12,0a.51.51,0,0,0-.21.08,1.08,1.08,0,0,0-.2.16.36.36,0,0,0-.07.22c0,.06,0,.1,0,.12s.05,0,.1,0l.22-.06.36-.12a.59.59,0,0,1,.67.09,1.06,1.06,0,0,1,.21.71,1.81,1.81,0,0,1-.09.55,2.24,2.24,0,0,1-.25.55,2.78,2.78,0,0,1-.41.51,2.41,2.41,0,0,1-.54.41,1.42,1.42,0,0,1-.54.21.66.66,0,0,1-.38-.05.47.47,0,0,1-.24-.22.71.71,0,0,1-.1-.33.38.38,0,0,1,0-.17.31.31,0,0,1,.1-.12l.63-.36s.06,0,.08,0l.07,0a.16.16,0,0,0,.11,0,.52.52,0,0,0,.23-.09.92.92,0,0,0,.26-.22A.35.35,0,0,0,210,140.61Z" style="fill:#455a64"></path><path d="M160.79,153.5s0-.08,0-.17v-.83l-1.3.75c-.07,0-.11,0-.11-.11v-.3a.79.79,0,0,1,0-.17s0-.09,0-.16l1.38-3.77.07-.14a.24.24,0,0,1,.09-.08l.18-.11s.09,0,.12,0a.34.34,0,0,1,0,.18v2.9l.28-.17c.06,0,.09,0,.12,0a.36.36,0,0,1,0,.18v.2a.58.58,0,0,1,0,.21.28.28,0,0,1-.12.12l-.28.17V153a.56.56,0,0,1,0,.21.29.29,0,0,1-.12.13l-.22.12C160.85,153.52,160.81,153.53,160.79,153.5Zm.05-1.76v-2.06l-1,2.61Z" style="fill:#455a64"></path><path d="M162.33,152.11a2.71,2.71,0,0,1-.38-1.7,5.27,5.27,0,0,1,.38-2.13,2.62,2.62,0,0,1,1.08-1.3,1.54,1.54,0,0,1,.52-.2.64.64,0,0,1,.4.06.1.1,0,0,1,0,.08.34.34,0,0,1,0,.09l-.12.44c0,.05,0,.08,0,.09h-.05a.78.78,0,0,0-.67.11,1.83,1.83,0,0,0-.73.89,4,4,0,0,0-.27,1.58,2.2,2.2,0,0,0,.26,1.28c.17.21.41.23.71.06a1.72,1.72,0,0,0,.32-.23,1.61,1.61,0,0,0,.25-.29v-1.34l-.54.31c-.05,0-.09,0-.11,0a.36.36,0,0,1,0-.18v-.19a.58.58,0,0,1,0-.21.25.25,0,0,1,.11-.12l.87-.5c.06,0,.1,0,.13,0a.5.5,0,0,1,0,.22v1.92a.72.72,0,0,1,0,.17.24.24,0,0,1,0,.13,2.67,2.67,0,0,1-1,1C162.94,152.42,162.58,152.41,162.33,152.11Z" style="fill:#455a64"></path><path d="M173.27,145.48a2,2,0,0,1-.75,1.6c-.42.24-.75-.09-.75-.73a2,2,0,0,1,.75-1.59C172.94,144.52,173.27,144.84,173.27,145.48Z" style="fill:#455a64"></path><path d="M172.52,142.86a4.51,4.51,0,0,0-1.75,2.63c-.07.23,0,.46.08.53h0c.14.09.35-.1.44-.39a3.2,3.2,0,0,1,1.23-1.86.79.79,0,0,1,1.23.43c.09.2.3.14.44-.11h0a.74.74,0,0,0,.08-.62A1.13,1.13,0,0,0,172.52,142.86Z" style="fill:#455a64"></path><path d="M172.52,141a7,7,0,0,0-2.69,3.83c-.09.25-.06.5.06.58h0c.14.09.34-.09.44-.37a5.72,5.72,0,0,1,2.19-3.13,1.46,1.46,0,0,1,2.2.6c.09.17.29.11.43-.14h0a.71.71,0,0,0,.06-.64A1.78,1.78,0,0,0,172.52,141Z" style="fill:#455a64"></path><path d="M198.05,128.8a.06.06,0,0,1,.09,0s0,.06,0,.12v.75a.35.35,0,0,1,0,.17.41.41,0,0,1-.09.12l-.47.26a.06.06,0,0,1-.09,0,.16.16,0,0,1,0-.12v-.76a.38.38,0,0,1,0-.17.25.25,0,0,1,.09-.11Zm0,2.69a.08.08,0,0,1,.09,0,.17.17,0,0,1,0,.13v.75a.38.38,0,0,1,0,.17.35.35,0,0,1-.09.11l-.47.27a.06.06,0,0,1-.09,0s0-.06,0-.12V132a.35.35,0,0,1,0-.17.29.29,0,0,1,.09-.12Z" style="fill:#455a64"></path><path d="M200.71,131.12a.08.08,0,0,1-.1,0,.21.21,0,0,1,0-.12v-.93L199,131a.08.08,0,0,1-.1,0,.17.17,0,0,1,0-.12v-.54a.49.49,0,0,1,0-.21c0-.07,0-.14.07-.22l1.53-3.81a.63.63,0,0,1,.2-.31l.38-.22a.08.08,0,0,1,.1,0,.17.17,0,0,1,0,.12v3.07l.43-.25a.06.06,0,0,1,.09,0,.15.15,0,0,1,0,.12v.55a.38.38,0,0,1,0,.17.35.35,0,0,1-.09.11l-.43.25v.93a.59.59,0,0,1,0,.17.27.27,0,0,1-.1.11Zm-.14-2v-1.65l-.85,2.14Z" style="fill:#455a64"></path><path d="M195.59,134.05s-.07,0-.09,0a.17.17,0,0,1,0-.13V133l-1.55.9s-.07,0-.09,0a.17.17,0,0,1,0-.12v-.55a.78.78,0,0,1,0-.21l.07-.21,1.53-3.82a.78.78,0,0,1,.2-.31l.38-.22a.09.09,0,0,1,.1,0,.16.16,0,0,1,0,.12v3.08l.43-.25a.07.07,0,0,1,.09,0,.17.17,0,0,1,0,.13v.54a.33.33,0,0,1,0,.17.24.24,0,0,1-.09.12l-.43.24v.93a.33.33,0,0,1,0,.17.25.25,0,0,1-.1.12Zm-.13-2v-1.64l-.86,2.14Z" style="fill:#455a64"></path><path d="M202.71,124.79a.59.59,0,0,1,0-.17.27.27,0,0,1,.1-.11l1.87-1.08a.08.08,0,0,1,.1,0,.21.21,0,0,1,0,.12v.55a.53.53,0,0,1,0,.17.4.4,0,0,1-.1.12l-1.4.8,0,1a1.59,1.59,0,0,1,.26-.26l.22-.14a1.35,1.35,0,0,1,.52-.18.56.56,0,0,1,.41.1.87.87,0,0,1,.28.4,2.26,2.26,0,0,1,.1.7,3.58,3.58,0,0,1-.11.9,2.84,2.84,0,0,1-.28.74,2.19,2.19,0,0,1-.41.57,2.72,2.72,0,0,1-.51.4,1.67,1.67,0,0,1-.59.22.6.6,0,0,1-.41-.1.69.69,0,0,1-.24-.35,1.59,1.59,0,0,1-.1-.51.39.39,0,0,1,0-.18.27.27,0,0,1,.1-.11l.4-.23s.07,0,.09,0,.05,0,.06.1a.5.5,0,0,0,.09.23.24.24,0,0,0,.15.09.32.32,0,0,0,.19,0,1.38,1.38,0,0,0,.22-.1,1.21,1.21,0,0,0,.46-.51,1.66,1.66,0,0,0,.17-.75.56.56,0,0,0-.17-.47.41.41,0,0,0-.46,0,1.91,1.91,0,0,0-.24.17,1.77,1.77,0,0,0-.14.17.73.73,0,0,1-.1.13.38.38,0,0,1-.11.11l-.46.26a.08.08,0,0,1-.1,0,.17.17,0,0,1,0-.12Z" style="fill:#455a64"></path><polygon points="146.44 162.4 146.44 160.8 147.82 160 147.82 161.6 146.44 162.4" style="fill:#455a64"></polygon><polygon points="148.52 161.2 148.52 158 149.9 157.2 149.9 160.4 148.52 161.2" style="fill:#455a64"></polygon><polygon points="150.6 160 150.6 155.2 151.98 154.4 151.98 159.2 150.6 160" style="fill:#455a64"></polygon><polygon points="152.68 158.8 152.68 152.4 154.06 151.6 154.06 158 152.68 158.8" style="fill:#455a64"></polygon><path d="M250,97.41c-.15-.22-.33-.27-.51-.17l-5.18,3a2,2,0,0,0-.6,1.57v2.91a1.68,1.68,0,0,0,.23.93.54.54,0,0,0,.21.19.33.33,0,0,0,.3,0l5.18-3a2,2,0,0,0,.6-1.58v-2.9A1.64,1.64,0,0,0,250,97.41Zm-5.92,7.84a.83.83,0,0,1-.08-.42v-2.91a1.54,1.54,0,0,1,.45-1.2l5.18-3a.16.16,0,0,1,.16,0l.07.06a.91.91,0,0,1,.08.43v2.91a1.59,1.59,0,0,1-.45,1.2l-5.18,3A.15.15,0,0,1,244.09,105.25Z" style="fill:#455a64"></path><path d="M245.44,100.66v3.44l-.81.47a.11.11,0,0,1-.16-.09v-2.56a1.19,1.19,0,0,1,.34-.89Z" style="fill:#455a64"></path><polygon points="245.82 100.45 246.79 99.89 246.79 103.33 245.82 103.88 245.82 100.45" style="fill:#455a64"></polygon><polygon points="247.17 99.68 248.14 99.11 248.14 102.56 247.17 103.12 247.17 99.68" style="fill:#455a64"></polygon><path d="M249.49,98.57v2.48a1.31,1.31,0,0,1-.64,1.11l-.33.19V98.9l.77-.44A.13.13,0,0,1,249.49,98.57Z" style="fill:#455a64"></path><path d="M250.43,98.24c.14-.08.26.33.26.93v.54a2.2,2.2,0,0,1-.26,1.26l-.27.18V98.4Z" style="fill:#455a64"></path><polygon points="235.86 107.04 240.89 102.57 239.34 109.12 238.61 106.39 235.86 107.04" style="fill:#455a64"></polygon></g></g></svg>